<svg xmlns="http://www.w3.org/2000/svg" viewBox="0 0 64 64">
  <rect x="2" y="2" width="60" height="60" rx="14" fill="#f2ede2" stroke="#141414" stroke-width="3"/>
  <g transform="translate(8 8) scale(2)">
    <path fill="#f49bc1" stroke="#141414" stroke-width="1.2" stroke-linejoin="round" d="M12 2.5c-5.5 0-9.5 4-9.8 8.7 0 .3.3.55.6.4 1-.5 2.4-.8 3.4-.1.4.3.9.3 1.3 0 1.2-.9 2.6-.9 3.8 0 .4.3.9.3 1.3 0 1.2-.9 2.6-.9 3.8 0 .4.3.9.3 1.3 0 1-.7 2.4-.4 3.4.1.3.15.6-.1.6-.4C21.5 6.5 17.5 2.5 12 2.5Z"/>
    <path fill="none" stroke="#141414" stroke-width="1.8" stroke-linecap="round" d="M12 12v6.5a1.6 1.6 0 0 1-3.2 0"/>
  </g>
</svg>
